<svg width="100" height="100" viewBox="0 0 100 100" xmlns="http://www.w3.org/2000/svg">
  <rect width="100" height="100" rx="20" fill="#111111"/>
  
  <!-- bulb RIGHT half (light) -->
  <path d="M50,18
    C64,18 75,29 75,43
    C75,54 68,63 59,67
    L59,76 L50,76 L50,18Z"
    fill="#EEEEEE" opacity="0.88"/>
  <!-- bulb LEFT half (dark) -->
  <path d="M50,18
    C36,18 25,29 25,43
    C25,54 32,63 41,67
    L41,76 L50,76 L50,18Z"
    fill="#555555" opacity="0.75"/>
  <!-- base rings -->
  <rect x="41" y="76" width="18" height="5" rx="2.5" fill="#AAAAAA" opacity="0.55"/>
  <rect x="43" y="81" width="14" height="4" rx="2" fill="#AAAAAA" opacity="0.4"/>
  <!-- pink spark circle -->
  <circle cx="65" cy="28" r="6" fill="#FF3D6B"/>
  <!-- spark rays -->
  <line x1="65" y1="19" x2="65" y2="13" stroke="#FF3D6B" stroke-width="2.5" stroke-linecap="round"/>
  <line x1="72" y1="22" x2="77" y2="17" stroke="#FF3D6B" stroke-width="2.5" stroke-linecap="round"/>
  <line x1="74" y1="30" x2="80" y2="30" stroke="#FF3D6B" stroke-width="2.5" stroke-linecap="round"/>

</svg>